<mxfile host="app.diagrams.net" agent="Mozilla/5.0 (Windows NT 10.0; Win64; x64) AppleWebKit/537.36 (KHTML, like Gecko) Chrome/134.0.0.0 Safari/537.36" version="26.2.3">
  <diagram name="Página-1" id="5yk2sPoz0hV0vfWC_p7R">
    <mxGraphModel dx="1215" dy="643" grid="1" gridSize="10" guides="1" tooltips="1" connect="1" arrows="1" fold="1" page="1" pageScale="1" pageWidth="827" pageHeight="1169" math="0" shadow="0">
      <root>
        <mxCell id="0" />
        <mxCell id="1" parent="0" />
        <mxCell id="VGYdLoOnEks6U2Xm8Wfg-1" value="Comprar Passagem" style="ellipse;whiteSpace=wrap;html=1;" vertex="1" parent="1">
          <mxGeometry x="200" y="80" width="120" height="80" as="geometry" />
        </mxCell>
        <mxCell id="VGYdLoOnEks6U2Xm8Wfg-2" value="Realizar Check-in" style="ellipse;whiteSpace=wrap;html=1;" vertex="1" parent="1">
          <mxGeometry x="200" y="200" width="120" height="80" as="geometry" />
        </mxCell>
        <mxCell id="VGYdLoOnEks6U2Xm8Wfg-4" value="Passageiro" style="shape=umlActor;verticalLabelPosition=bottom;verticalAlign=top;html=1;outlineConnect=0;" vertex="1" parent="1">
          <mxGeometry x="40" y="120" width="80" height="120" as="geometry" />
        </mxCell>
        <mxCell id="VGYdLoOnEks6U2Xm8Wfg-5" value="" style="endArrow=classic;html=1;rounded=0;" edge="1" parent="1" source="VGYdLoOnEks6U2Xm8Wfg-4" target="VGYdLoOnEks6U2Xm8Wfg-1">
          <mxGeometry width="50" height="50" relative="1" as="geometry">
            <mxPoint x="190" y="260" as="sourcePoint" />
            <mxPoint x="240" y="210" as="targetPoint" />
          </mxGeometry>
        </mxCell>
        <mxCell id="VGYdLoOnEks6U2Xm8Wfg-6" value="" style="endArrow=classic;html=1;rounded=0;" edge="1" parent="1" source="VGYdLoOnEks6U2Xm8Wfg-4" target="VGYdLoOnEks6U2Xm8Wfg-2">
          <mxGeometry width="50" height="50" relative="1" as="geometry">
            <mxPoint x="130" y="177" as="sourcePoint" />
            <mxPoint x="216" y="148" as="targetPoint" />
          </mxGeometry>
        </mxCell>
        <mxCell id="VGYdLoOnEks6U2Xm8Wfg-8" value="Companhia" style="shape=umlActor;verticalLabelPosition=bottom;verticalAlign=top;html=1;outlineConnect=0;" vertex="1" parent="1">
          <mxGeometry x="680" y="360" width="80" height="120" as="geometry" />
        </mxCell>
        <mxCell id="VGYdLoOnEks6U2Xm8Wfg-9" value="Cadastrar Voos" style="ellipse;whiteSpace=wrap;html=1;" vertex="1" parent="1">
          <mxGeometry x="480" y="320" width="120" height="80" as="geometry" />
        </mxCell>
        <mxCell id="VGYdLoOnEks6U2Xm8Wfg-10" value="Gerencia Reservas" style="ellipse;whiteSpace=wrap;html=1;" vertex="1" parent="1">
          <mxGeometry x="480" y="440" width="120" height="80" as="geometry" />
        </mxCell>
        <mxCell id="VGYdLoOnEks6U2Xm8Wfg-11" value="Autoriza pousos e decolagens" style="ellipse;whiteSpace=wrap;html=1;" vertex="1" parent="1">
          <mxGeometry x="200" y="360" width="120" height="80" as="geometry" />
        </mxCell>
        <mxCell id="VGYdLoOnEks6U2Xm8Wfg-12" value="Gerencia pistas" style="ellipse;whiteSpace=wrap;html=1;" vertex="1" parent="1">
          <mxGeometry x="200" y="480" width="120" height="80" as="geometry" />
        </mxCell>
        <mxCell id="VGYdLoOnEks6U2Xm8Wfg-13" value="Passageiro" style="shape=umlActor;verticalLabelPosition=bottom;verticalAlign=top;html=1;outlineConnect=0;" vertex="1" parent="1">
          <mxGeometry x="40" y="400" width="80" height="120" as="geometry" />
        </mxCell>
        <mxCell id="VGYdLoOnEks6U2Xm8Wfg-15" value="" style="endArrow=classic;html=1;rounded=0;" edge="1" parent="1" source="VGYdLoOnEks6U2Xm8Wfg-13" target="VGYdLoOnEks6U2Xm8Wfg-11">
          <mxGeometry width="50" height="50" relative="1" as="geometry">
            <mxPoint x="190" y="370" as="sourcePoint" />
            <mxPoint x="240" y="320" as="targetPoint" />
          </mxGeometry>
        </mxCell>
        <mxCell id="VGYdLoOnEks6U2Xm8Wfg-16" value="" style="endArrow=classic;html=1;rounded=0;" edge="1" parent="1" source="VGYdLoOnEks6U2Xm8Wfg-13" target="VGYdLoOnEks6U2Xm8Wfg-12">
          <mxGeometry width="50" height="50" relative="1" as="geometry">
            <mxPoint x="130" y="457" as="sourcePoint" />
            <mxPoint x="216" y="428" as="targetPoint" />
          </mxGeometry>
        </mxCell>
        <mxCell id="VGYdLoOnEks6U2Xm8Wfg-17" value="" style="endArrow=classic;html=1;rounded=0;" edge="1" parent="1" source="VGYdLoOnEks6U2Xm8Wfg-8" target="VGYdLoOnEks6U2Xm8Wfg-9">
          <mxGeometry width="50" height="50" relative="1" as="geometry">
            <mxPoint x="90" y="723" as="sourcePoint" />
            <mxPoint x="176" y="752" as="targetPoint" />
          </mxGeometry>
        </mxCell>
        <mxCell id="VGYdLoOnEks6U2Xm8Wfg-18" value="" style="endArrow=classic;html=1;rounded=0;" edge="1" parent="1" source="VGYdLoOnEks6U2Xm8Wfg-8" target="VGYdLoOnEks6U2Xm8Wfg-10">
          <mxGeometry width="50" height="50" relative="1" as="geometry">
            <mxPoint x="690" y="408" as="sourcePoint" />
            <mxPoint x="596" y="356" as="targetPoint" />
          </mxGeometry>
        </mxCell>
        <mxCell id="VGYdLoOnEks6U2Xm8Wfg-47" style="edgeStyle=orthogonalEdgeStyle;rounded=0;orthogonalLoop=1;jettySize=auto;html=1;" edge="1" parent="1" source="VGYdLoOnEks6U2Xm8Wfg-19">
          <mxGeometry relative="1" as="geometry">
            <mxPoint x="270" y="680" as="targetPoint" />
          </mxGeometry>
        </mxCell>
        <mxCell id="VGYdLoOnEks6U2Xm8Wfg-19" value="Passageiro" style="swimlane;fontStyle=1;align=center;verticalAlign=top;childLayout=stackLayout;horizontal=1;startSize=26;horizontalStack=0;resizeParent=1;resizeParentMax=0;resizeLast=0;collapsible=1;marginBottom=0;whiteSpace=wrap;html=1;" vertex="1" parent="1">
          <mxGeometry x="40" y="640" width="160" height="140" as="geometry" />
        </mxCell>
        <mxCell id="VGYdLoOnEks6U2Xm8Wfg-20" value="+ ID()&lt;div&gt;+ Nome()&lt;/div&gt;&lt;div&gt;+ Passaporte&lt;/div&gt;" style="text;strokeColor=none;fillColor=none;align=left;verticalAlign=top;spacingLeft=4;spacingRight=4;overflow=hidden;rotatable=0;points=[[0,0.5],[1,0.5]];portConstraint=eastwest;whiteSpace=wrap;html=1;" vertex="1" parent="VGYdLoOnEks6U2Xm8Wfg-19">
          <mxGeometry y="26" width="160" height="64" as="geometry" />
        </mxCell>
        <mxCell id="VGYdLoOnEks6U2Xm8Wfg-21" value="" style="line;strokeWidth=1;fillColor=none;align=left;verticalAlign=middle;spacingTop=-1;spacingLeft=3;spacingRight=3;rotatable=0;labelPosition=right;points=[];portConstraint=eastwest;strokeColor=inherit;" vertex="1" parent="VGYdLoOnEks6U2Xm8Wfg-19">
          <mxGeometry y="90" width="160" height="8" as="geometry" />
        </mxCell>
        <mxCell id="VGYdLoOnEks6U2Xm8Wfg-22" value="+ Cancelar_passagem ()&lt;div&gt;+ Modificar_passagem()&lt;/div&gt;" style="text;strokeColor=none;fillColor=none;align=left;verticalAlign=top;spacingLeft=4;spacingRight=4;overflow=hidden;rotatable=0;points=[[0,0.5],[1,0.5]];portConstraint=eastwest;whiteSpace=wrap;html=1;" vertex="1" parent="VGYdLoOnEks6U2Xm8Wfg-19">
          <mxGeometry y="98" width="160" height="42" as="geometry" />
        </mxCell>
        <mxCell id="VGYdLoOnEks6U2Xm8Wfg-52" style="edgeStyle=orthogonalEdgeStyle;rounded=0;orthogonalLoop=1;jettySize=auto;html=1;" edge="1" parent="1" source="VGYdLoOnEks6U2Xm8Wfg-23">
          <mxGeometry relative="1" as="geometry">
            <mxPoint x="605" y="830" as="targetPoint" />
          </mxGeometry>
        </mxCell>
        <mxCell id="VGYdLoOnEks6U2Xm8Wfg-23" value="Passagem" style="swimlane;fontStyle=1;align=center;verticalAlign=top;childLayout=stackLayout;horizontal=1;startSize=26;horizontalStack=0;resizeParent=1;resizeParentMax=0;resizeLast=0;collapsible=1;marginBottom=0;whiteSpace=wrap;html=1;" vertex="1" parent="1">
          <mxGeometry x="525" y="600" width="160" height="160" as="geometry" />
        </mxCell>
        <mxCell id="VGYdLoOnEks6U2Xm8Wfg-24" value="+ ID()&lt;div&gt;+ Assento()&lt;/div&gt;&lt;div&gt;+ Preço()&lt;/div&gt;&lt;div&gt;+ Status()&lt;/div&gt;" style="text;strokeColor=none;fillColor=none;align=left;verticalAlign=top;spacingLeft=4;spacingRight=4;overflow=hidden;rotatable=0;points=[[0,0.5],[1,0.5]];portConstraint=eastwest;whiteSpace=wrap;html=1;" vertex="1" parent="VGYdLoOnEks6U2Xm8Wfg-23">
          <mxGeometry y="26" width="160" height="74" as="geometry" />
        </mxCell>
        <mxCell id="VGYdLoOnEks6U2Xm8Wfg-25" value="" style="line;strokeWidth=1;fillColor=none;align=left;verticalAlign=middle;spacingTop=-1;spacingLeft=3;spacingRight=3;rotatable=0;labelPosition=right;points=[];portConstraint=eastwest;strokeColor=inherit;" vertex="1" parent="VGYdLoOnEks6U2Xm8Wfg-23">
          <mxGeometry y="100" width="160" height="8" as="geometry" />
        </mxCell>
        <mxCell id="VGYdLoOnEks6U2Xm8Wfg-26" value="+ Cancelar_passagem ()&lt;div&gt;+ Alterar_data()&lt;/div&gt;&lt;div&gt;+ Alterar_destino()&lt;/div&gt;" style="text;strokeColor=none;fillColor=none;align=left;verticalAlign=top;spacingLeft=4;spacingRight=4;overflow=hidden;rotatable=0;points=[[0,0.5],[1,0.5]];portConstraint=eastwest;whiteSpace=wrap;html=1;" vertex="1" parent="VGYdLoOnEks6U2Xm8Wfg-23">
          <mxGeometry y="108" width="160" height="52" as="geometry" />
        </mxCell>
        <mxCell id="VGYdLoOnEks6U2Xm8Wfg-27" value="Companhia Aérea" style="swimlane;fontStyle=1;align=center;verticalAlign=top;childLayout=stackLayout;horizontal=1;startSize=26;horizontalStack=0;resizeParent=1;resizeParentMax=0;resizeLast=0;collapsible=1;marginBottom=0;whiteSpace=wrap;html=1;" vertex="1" parent="1">
          <mxGeometry x="280" y="600" width="160" height="150" as="geometry" />
        </mxCell>
        <mxCell id="VGYdLoOnEks6U2Xm8Wfg-51" style="edgeStyle=orthogonalEdgeStyle;rounded=0;orthogonalLoop=1;jettySize=auto;html=1;" edge="1" parent="VGYdLoOnEks6U2Xm8Wfg-27" source="VGYdLoOnEks6U2Xm8Wfg-28">
          <mxGeometry relative="1" as="geometry">
            <mxPoint x="240" y="80" as="targetPoint" />
          </mxGeometry>
        </mxCell>
        <mxCell id="VGYdLoOnEks6U2Xm8Wfg-28" value="+ ID()&lt;div&gt;+ Nome()&lt;/div&gt;&lt;div&gt;+ Codigo ICAO()&lt;/div&gt;" style="text;strokeColor=none;fillColor=none;align=left;verticalAlign=top;spacingLeft=4;spacingRight=4;overflow=hidden;rotatable=0;points=[[0,0.5],[1,0.5]];portConstraint=eastwest;whiteSpace=wrap;html=1;" vertex="1" parent="VGYdLoOnEks6U2Xm8Wfg-27">
          <mxGeometry y="26" width="160" height="64" as="geometry" />
        </mxCell>
        <mxCell id="VGYdLoOnEks6U2Xm8Wfg-29" value="" style="line;strokeWidth=1;fillColor=none;align=left;verticalAlign=middle;spacingTop=-1;spacingLeft=3;spacingRight=3;rotatable=0;labelPosition=right;points=[];portConstraint=eastwest;strokeColor=inherit;" vertex="1" parent="VGYdLoOnEks6U2Xm8Wfg-27">
          <mxGeometry y="90" width="160" height="8" as="geometry" />
        </mxCell>
        <mxCell id="VGYdLoOnEks6U2Xm8Wfg-30" value="+ Cancelar_passagem ()&lt;div&gt;+ Alterar_data()&lt;/div&gt;&lt;div&gt;+ Alterar_destino()&lt;/div&gt;" style="text;strokeColor=none;fillColor=none;align=left;verticalAlign=top;spacingLeft=4;spacingRight=4;overflow=hidden;rotatable=0;points=[[0,0.5],[1,0.5]];portConstraint=eastwest;whiteSpace=wrap;html=1;" vertex="1" parent="VGYdLoOnEks6U2Xm8Wfg-27">
          <mxGeometry y="98" width="160" height="52" as="geometry" />
        </mxCell>
        <mxCell id="VGYdLoOnEks6U2Xm8Wfg-60" style="edgeStyle=orthogonalEdgeStyle;rounded=0;orthogonalLoop=1;jettySize=auto;html=1;" edge="1" parent="1" source="VGYdLoOnEks6U2Xm8Wfg-31">
          <mxGeometry relative="1" as="geometry">
            <mxPoint x="220" y="942" as="targetPoint" />
          </mxGeometry>
        </mxCell>
        <mxCell id="VGYdLoOnEks6U2Xm8Wfg-31" value="Aeronave" style="swimlane;fontStyle=1;align=center;verticalAlign=top;childLayout=stackLayout;horizontal=1;startSize=26;horizontalStack=0;resizeParent=1;resizeParentMax=0;resizeLast=0;collapsible=1;marginBottom=0;whiteSpace=wrap;html=1;" vertex="1" parent="1">
          <mxGeometry x="280" y="880" width="160" height="124" as="geometry" />
        </mxCell>
        <mxCell id="VGYdLoOnEks6U2Xm8Wfg-32" value="+ ID()&lt;div&gt;+ Modelo()&lt;/div&gt;&lt;div&gt;+ Capacidade()&lt;/div&gt;" style="text;strokeColor=none;fillColor=none;align=left;verticalAlign=top;spacingLeft=4;spacingRight=4;overflow=hidden;rotatable=0;points=[[0,0.5],[1,0.5]];portConstraint=eastwest;whiteSpace=wrap;html=1;" vertex="1" parent="VGYdLoOnEks6U2Xm8Wfg-31">
          <mxGeometry y="26" width="160" height="64" as="geometry" />
        </mxCell>
        <mxCell id="VGYdLoOnEks6U2Xm8Wfg-33" value="" style="line;strokeWidth=1;fillColor=none;align=left;verticalAlign=middle;spacingTop=-1;spacingLeft=3;spacingRight=3;rotatable=0;labelPosition=right;points=[];portConstraint=eastwest;strokeColor=inherit;" vertex="1" parent="VGYdLoOnEks6U2Xm8Wfg-31">
          <mxGeometry y="90" width="160" height="8" as="geometry" />
        </mxCell>
        <mxCell id="VGYdLoOnEks6U2Xm8Wfg-34" value="+ method(type): type" style="text;strokeColor=none;fillColor=none;align=left;verticalAlign=top;spacingLeft=4;spacingRight=4;overflow=hidden;rotatable=0;points=[[0,0.5],[1,0.5]];portConstraint=eastwest;whiteSpace=wrap;html=1;" vertex="1" parent="VGYdLoOnEks6U2Xm8Wfg-31">
          <mxGeometry y="98" width="160" height="26" as="geometry" />
        </mxCell>
        <mxCell id="VGYdLoOnEks6U2Xm8Wfg-35" value="Pista de pouso / decolagem" style="swimlane;fontStyle=1;align=center;verticalAlign=top;childLayout=stackLayout;horizontal=1;startSize=26;horizontalStack=0;resizeParent=1;resizeParentMax=0;resizeLast=0;collapsible=1;marginBottom=0;whiteSpace=wrap;html=1;" vertex="1" parent="1">
          <mxGeometry x="40" y="880" width="170" height="134" as="geometry" />
        </mxCell>
        <mxCell id="VGYdLoOnEks6U2Xm8Wfg-36" value="+ ID()&lt;div&gt;+ Número()&lt;/div&gt;&lt;div&gt;+ Comprimento()&lt;/div&gt;&lt;div&gt;+ Status()&lt;/div&gt;" style="text;strokeColor=none;fillColor=none;align=left;verticalAlign=top;spacingLeft=4;spacingRight=4;overflow=hidden;rotatable=0;points=[[0,0.5],[1,0.5]];portConstraint=eastwest;whiteSpace=wrap;html=1;" vertex="1" parent="VGYdLoOnEks6U2Xm8Wfg-35">
          <mxGeometry y="26" width="170" height="74" as="geometry" />
        </mxCell>
        <mxCell id="VGYdLoOnEks6U2Xm8Wfg-37" value="" style="line;strokeWidth=1;fillColor=none;align=left;verticalAlign=middle;spacingTop=-1;spacingLeft=3;spacingRight=3;rotatable=0;labelPosition=right;points=[];portConstraint=eastwest;strokeColor=inherit;" vertex="1" parent="VGYdLoOnEks6U2Xm8Wfg-35">
          <mxGeometry y="100" width="170" height="8" as="geometry" />
        </mxCell>
        <mxCell id="VGYdLoOnEks6U2Xm8Wfg-38" value="+ method(type): type" style="text;strokeColor=none;fillColor=none;align=left;verticalAlign=top;spacingLeft=4;spacingRight=4;overflow=hidden;rotatable=0;points=[[0,0.5],[1,0.5]];portConstraint=eastwest;whiteSpace=wrap;html=1;" vertex="1" parent="VGYdLoOnEks6U2Xm8Wfg-35">
          <mxGeometry y="108" width="170" height="26" as="geometry" />
        </mxCell>
        <mxCell id="VGYdLoOnEks6U2Xm8Wfg-58" style="edgeStyle=orthogonalEdgeStyle;rounded=0;orthogonalLoop=1;jettySize=auto;html=1;" edge="1" parent="1" source="VGYdLoOnEks6U2Xm8Wfg-54">
          <mxGeometry relative="1" as="geometry">
            <mxPoint x="450" y="940" as="targetPoint" />
          </mxGeometry>
        </mxCell>
        <mxCell id="VGYdLoOnEks6U2Xm8Wfg-54" value="Voo" style="swimlane;fontStyle=1;align=center;verticalAlign=top;childLayout=stackLayout;horizontal=1;startSize=26;horizontalStack=0;resizeParent=1;resizeParentMax=0;resizeLast=0;collapsible=1;marginBottom=0;whiteSpace=wrap;html=1;" vertex="1" parent="1">
          <mxGeometry x="525" y="840" width="160" height="144" as="geometry" />
        </mxCell>
        <mxCell id="VGYdLoOnEks6U2Xm8Wfg-55" value="+ ID()&lt;div&gt;+ Origem()&lt;/div&gt;&lt;div&gt;+ Destino()&lt;/div&gt;&lt;div&gt;+ Horario()&lt;/div&gt;&lt;div&gt;+ Status()&lt;/div&gt;" style="text;strokeColor=none;fillColor=none;align=left;verticalAlign=top;spacingLeft=4;spacingRight=4;overflow=hidden;rotatable=0;points=[[0,0.5],[1,0.5]];portConstraint=eastwest;whiteSpace=wrap;html=1;" vertex="1" parent="VGYdLoOnEks6U2Xm8Wfg-54">
          <mxGeometry y="26" width="160" height="84" as="geometry" />
        </mxCell>
        <mxCell id="VGYdLoOnEks6U2Xm8Wfg-56" value="" style="line;strokeWidth=1;fillColor=none;align=left;verticalAlign=middle;spacingTop=-1;spacingLeft=3;spacingRight=3;rotatable=0;labelPosition=right;points=[];portConstraint=eastwest;strokeColor=inherit;" vertex="1" parent="VGYdLoOnEks6U2Xm8Wfg-54">
          <mxGeometry y="110" width="160" height="8" as="geometry" />
        </mxCell>
        <mxCell id="VGYdLoOnEks6U2Xm8Wfg-57" value="+ method(type): type" style="text;strokeColor=none;fillColor=none;align=left;verticalAlign=top;spacingLeft=4;spacingRight=4;overflow=hidden;rotatable=0;points=[[0,0.5],[1,0.5]];portConstraint=eastwest;whiteSpace=wrap;html=1;" vertex="1" parent="VGYdLoOnEks6U2Xm8Wfg-54">
          <mxGeometry y="118" width="160" height="26" as="geometry" />
        </mxCell>
        <mxCell id="VGYdLoOnEks6U2Xm8Wfg-61" value="Sistema" style="shape=umlActor;verticalLabelPosition=bottom;verticalAlign=top;html=1;outlineConnect=0;" vertex="1" parent="1">
          <mxGeometry x="720" y="80" width="80" height="120" as="geometry" />
        </mxCell>
        <mxCell id="VGYdLoOnEks6U2Xm8Wfg-62" value="Gerencia operações aeroportuarias" style="ellipse;whiteSpace=wrap;html=1;" vertex="1" parent="1">
          <mxGeometry x="525" y="80" width="120" height="80" as="geometry" />
        </mxCell>
        <mxCell id="VGYdLoOnEks6U2Xm8Wfg-63" value="" style="endArrow=classic;html=1;rounded=0;" edge="1" parent="1" source="VGYdLoOnEks6U2Xm8Wfg-61" target="VGYdLoOnEks6U2Xm8Wfg-62">
          <mxGeometry width="50" height="50" relative="1" as="geometry">
            <mxPoint x="230" y="370" as="sourcePoint" />
            <mxPoint x="280" y="320" as="targetPoint" />
          </mxGeometry>
        </mxCell>
        <mxCell id="VGYdLoOnEks6U2Xm8Wfg-64" value="" style="ellipse;whiteSpace=wrap;html=1;" vertex="1" parent="1">
          <mxGeometry x="525" y="200" width="120" height="80" as="geometry" />
        </mxCell>
        <mxCell id="VGYdLoOnEks6U2Xm8Wfg-65" value="" style="endArrow=classic;html=1;rounded=0;" edge="1" parent="1" source="VGYdLoOnEks6U2Xm8Wfg-61" target="VGYdLoOnEks6U2Xm8Wfg-64">
          <mxGeometry width="50" height="50" relative="1" as="geometry">
            <mxPoint x="230" y="370" as="sourcePoint" />
            <mxPoint x="280" y="320" as="targetPoint" />
          </mxGeometry>
        </mxCell>
      </root>
    </mxGraphModel>
  </diagram>
</mxfile>
